<?xml version="1.0" encoding="UTF-8"?>
<svg id="Layer_1" xmlns="http://www.w3.org/2000/svg" xmlns:xlink="http://www.w3.org/1999/xlink" version="1.1" viewBox="0 0 504 144">
  <!-- Generator: Adobe Illustrator 29.5.1, SVG Export Plug-In . SVG Version: 2.1.0 Build 141)  -->
  <defs>
    <style>
      .st0 {
        fill: #ff8820;
      }

      .st1 {
        fill: #002296;
      }

      .st2 {
        stroke: #ff8820;
      }

      .st2, .st3, .st4, .st5, .st6, .st7, .st8, .st9, .st10, .st11, .st12, .st13, .st14 {
        stroke-miterlimit: 28.4;
      }

      .st2, .st3, .st5, .st6, .st7, .st8, .st9, .st10, .st11, .st12, .st13, .st14 {
        fill: none;
      }

      .st2, .st3, .st5, .st6, .st9, .st10, .st11, .st12, .st13, .st14 {
        stroke-width: 4.5px;
      }

      .st15 {
        fill: url(#linear-gradient3);
      }

      .st16 {
        font-size: 8px;
      }

      .st16, .st17, .st18, .st19, .st20, .st21, .st22, .st23, .st24, .st25 {
        isolation: isolate;
      }

      .st16, .st20, .st22, .st23, .st24, .st25 {
        font-family: MavenPro-Bold, 'Maven Pro';
        font-weight: 700;
      }

      .st3 {
        stroke: #82008f;
      }

      .st26, .st20 {
        fill: #001b78;
      }

      .st17 {
        font-family: MavenPro-Regular, 'Maven Pro';
      }

      .st17, .st18, .st21, .st24 {
        font-size: 9px;
      }

      .st17, .st21, .st24 {
        fill: #040404;
      }

      .st4 {
        stroke: #1f1d1d;
      }

      .st4, .st8, .st27, .st28, .st29 {
        stroke-width: .8px;
      }

      .st4, .st27, .st18 {
        fill: #fff;
      }

      .st5 {
        stroke: url(#linear-gradient2);
      }

      .st6 {
        stroke: url(#linear-gradient1);
      }

      .st30 {
        fill: #c0007a;
      }

      .st7 {
        stroke-width: .7px;
      }

      .st7, .st8 {
        stroke: #469e4f;
      }

      .st27, .st28, .st29 {
        stroke: #040404;
        stroke-miterlimit: 3;
      }

      .st18 {
        font-family: Helvetica, Helvetica;
      }

      .st31 {
        fill: #f6ba00;
      }

      .st9 {
        stroke: #b8327c;
      }

      .st10 {
        stroke: #001b78;
      }

      .st20, .st22, .st23 {
        font-size: 30px;
      }

      .st32 {
        fill: #82008f;
      }

      .st21 {
        font-family: MavenPro-SemiBold, 'Maven Pro';
        font-weight: 600;
      }

      .st22 {
        fill: #f26724;
      }

      .st33 {
        fill: #ff5341;
      }

      .st11 {
        stroke: #ea0c5f;
      }

      .st23 {
        fill: #001b7b;
      }

      .st12 {
        stroke: #ff5341;
      }

      .st25 {
        font-size: 6px;
      }

      .st28 {
        fill: #1f1d1d;
      }

      .st13 {
        stroke: #002296;
      }

      .st14 {
        stroke: url(#linear-gradient);
      }

      .st34 {
        fill: #ea0c5f;
      }

      .st29 {
        fill: #3a393b;
      }
    </style>
    <linearGradient id="linear-gradient" x1="446.3" y1="50.9" x2="471.7" y2="50.9" gradientTransform="translate(0 144) scale(1 -1)" gradientUnits="userSpaceOnUse">
      <stop offset="0" stop-color="#f6ba00"/>
      <stop offset="1" stop-color="#fbe588"/>
    </linearGradient>
    <linearGradient id="linear-gradient1" x1="412.5" y1="50.8" x2="448.6" y2="50.8" gradientTransform="translate(0 144) scale(1 -1)" gradientUnits="userSpaceOnUse">
      <stop offset="0" stop-color="#ff8820"/>
      <stop offset=".5" stop-color="#ff8820"/>
      <stop offset="1" stop-color="#f6ba00"/>
    </linearGradient>
    <linearGradient id="linear-gradient2" x1="356.9" y1="50.8" x2="393" y2="50.8" gradientTransform="translate(0 144) scale(1 -1)" gradientUnits="userSpaceOnUse">
      <stop offset="0" stop-color="#ff5341"/>
      <stop offset="1" stop-color="#ff8820"/>
    </linearGradient>
    <linearGradient id="linear-gradient3" x1="55.1" y1="-219.2" x2="70.5" y2="-219.2" gradientTransform="translate(0 240)" gradientUnits="userSpaceOnUse">
      <stop offset="0" stop-color="#fff"/>
      <stop offset="0" stop-color="#fbe588"/>
      <stop offset=".2" stop-color="#ffcc25"/>
      <stop offset=".4" stop-color="#f26724"/>
      <stop offset=".5" stop-color="#c85641"/>
      <stop offset=".5" stop-color="#a5495a"/>
      <stop offset=".5" stop-color="#8a3e6d"/>
      <stop offset=".6" stop-color="#77367b"/>
      <stop offset=".6" stop-color="#6b3283"/>
      <stop offset=".7" stop-color="#683186"/>
      <stop offset="1" stop-color="#001b78"/>
    </linearGradient>
  </defs>
  <path id="rect1" class="st32" d="M21,71.1h0c2,0,3.6,1.6,3.6,3.6h0c0,2-1.6,3.6-3.6,3.6h0c-2,0-3.6-1.6-3.6-3.6h0c0-2,1.6-3.6,3.6-3.6Z"/>
  <g id="text1" class="st19">
    <g class="st19">
      <g class="st19">
        <g class="st19">
          <g class="st19">
            <text class="st25" transform="translate(27.6 76.3)"><tspan x="0" y="0">BWA ( Meth / mem2 )</tspan></text>
          </g>
        </g>
      </g>
    </g>
  </g>
  <path id="rect2" class="st1" d="M21,59.7h0c2,0,3.6,1.6,3.6,3.6h0c0,2-1.6,3.6-3.6,3.6h0c-2,0-3.6-1.6-3.6-3.6h0c0-2,1.6-3.6,3.6-3.6Z"/>
  <g id="text2" class="st19">
    <g class="st19">
      <g class="st19">
        <g class="st19">
          <g class="st19">
            <text class="st25" transform="translate(27.6 64.9)"><tspan x="0" y="0">FastQC &amp; cat</tspan></text>
          </g>
        </g>
      </g>
    </g>
  </g>
  <path id="rect3" class="st26" d="M16,44.8h0c3,0,5.4,2.4,5.4,5.4h0c0,3-2.4,5.4-5.4,5.4h0c-3,0-5.4-2.4-5.4-5.4h0c0-3,2.4-5.4,5.4-5.4Z"/>
  <g id="text3" class="st19">
    <g class="st19">
      <g class="st19">
        <g class="st19">
          <g class="st19">
            <text class="st16" transform="translate(23.7 52.8)"><tspan x="0" y="0">cfDNA TAPS-Methylated Analysis</tspan></text>
          </g>
        </g>
      </g>
    </g>
  </g>
  <path id="rect4" class="st30" d="M21,82.5h0c2,0,3.6,1.6,3.6,3.6h0c0,2-1.6,3.6-3.6,3.6h0c-2,0-3.6-1.6-3.6-3.6h0c0-2,1.6-3.6,3.6-3.6Z"/>
  <g id="text4" class="st19">
    <g class="st19">
      <g class="st19">
        <g class="st19">
          <g class="st19">
            <text class="st25" transform="translate(27.6 133.7)"><tspan x="0" y="0">asTair</tspan></text>
          </g>
        </g>
      </g>
    </g>
  </g>
  <path id="rect5" class="st34" d="M21,93.9h0c2,0,3.6,1.6,3.6,3.6h0c0,2-1.6,3.6-3.6,3.6h0c-2,0-3.6-1.6-3.6-3.6h0c0-2,1.6-3.6,3.6-3.6Z"/>
  <g id="text5" class="st19">
    <g class="st19">
      <g class="st19">
        <g class="st19">
          <g class="st19">
            <text class="st25" transform="translate(27.6 122.2)"><tspan x="0" y="0">rasTair</tspan></text>
          </g>
        </g>
      </g>
    </g>
  </g>
  <path id="rect6" class="st33" d="M21,105.3h0c2,0,3.6,1.6,3.6,3.6h0c0,2-1.6,3.6-3.6,3.6h0c-2,0-3.6-1.6-3.6-3.6h0c0-2,1.6-3.6,3.6-3.6Z"/>
  <path id="rect7" class="st0" d="M21,116.7h0c2,0,3.6,1.6,3.6,3.6h0c0,2-1.6,3.6-3.6,3.6h0c-2,0-3.6-1.6-3.6-3.6h0c0-2,1.6-3.6,3.6-3.6Z"/>
  <path id="rect8" class="st31" d="M21,128.2h0c2,0,3.6,1.6,3.6,3.6h0c0,2-1.6,3.6-3.6,3.6h0c-2,0-3.6-1.6-3.6-3.6h0c0-2,1.6-3.6,3.6-3.6h0Z"/>
  <g id="text8" class="st19">
    <g class="st19">
      <g class="st19">
        <g class="st19">
          <g class="st19">
            <text class="st25" transform="translate(27.6 110.7)"><tspan x="0" y="0">PyMbias</tspan></text>
          </g>
        </g>
      </g>
    </g>
  </g>
  <g id="text9" class="st19">
    <g class="st19">
      <g class="st19">
        <g class="st19">
          <g class="st19">
            <text class="st25" transform="translate(27.6 99.3)"><tspan x="0" y="0">BedTools Intersect</tspan></text>
          </g>
        </g>
      </g>
    </g>
  </g>
  <g id="text10" class="st19">
    <g class="st19">
      <g class="st19">
        <g class="st19">
          <g class="st19">
            <text class="st25" transform="translate(27.6 87.8)"><tspan x="0" y="0">GATK4 MarkDuplicates</tspan></text>
          </g>
        </g>
      </g>
    </g>
  </g>
  <path id="path1-5" class="st7" d="M470.5,92.6h-24v14.6h-31.6v-14.7h-24.1v14.8h-31.6v-14.8h-165.5v14.7h-31.6s0-14.8,0-14.7h-23.8"/>
  <path id="path1" class="st8" d="M470.5,92.6h-24v-15.5h-31.6v15.5h-24.1v-15.6h-31.6v15.5h-165.5v-15.5h-31.6s0,15.7,0,15.5h-23.8"/>
  <path id="path2" class="st13" d="M223.4,93.1h-29.8,29.8Z"/>
  <path id="path3" class="st11" d="M329.4,93.1h-35.4,35.4Z"/>
  <path id="path4" class="st12" d="M359.2,93.1h-29.8,29.8Z"/>
  <path id="path5" class="st2" d="M414.8,93.1h-24.1,24.1Z"/>
  <path id="path6" class="st10" d="M162.2,93.3h-25.9,25.9Z"/>
  <path id="path7" class="st3" d="M258.8,93.1h-35.4,35.4Z"/>
  <path id="path8" class="st13" d="M162.7,77.4h30.4c.3,0,.6.3.6.6v30.3c0,.3-.3.6-.6.6h-30.4c-.3,0-.6-.3-.6-.6v-30.3c0-.3.3-.6.6-.6Z"/>
  <path id="path9" class="st14" d="M471.7,93.1h-25.4,25.4Z"/>
  <path id="path10" class="st6" d="M415.4,77.4h30.4c.3,0,.6.3.6.6v30.3c0,.3-.3.6-.6.6h-30.4c-.3,0-.6-.3-.6-.6v-30.3c0-.3.3-.6.6-.6h0Z"/>
  <g id="text10-2" class="st19">
    <g id="g2" class="st19">
      <g id="text1-3" class="st19">
        <g class="st19">
          <g class="st19">
            <g class="st19">
              <g class="st19">
                <text class="st21" transform="translate(162.8 65.6)"><tspan x="0" y="0">FastQC</tspan></text>
              </g>
            </g>
          </g>
        </g>
      </g>
    </g>
  </g>
  <g id="text14" class="st19">
    <g id="g3" class="st19">
      <g id="text2-9" class="st19">
        <g class="st19">
          <g class="st19">
            <g class="st19">
              <g class="st19">
                <text class="st21" transform="translate(274.7 69.8)"><tspan x="0" y="0">BedTools</tspan></text>
              </g>
            </g>
          </g>
        </g>
      </g>
    </g>
    <g id="g4" class="st19">
      <g id="text3-0" class="st19">
        <g class="st19">
          <g class="st19">
            <g class="st19">
              <g class="st19">
                <text class="st17" transform="translate(276.3 80.6)"><tspan x="0" y="0">intersect</tspan></text>
              </g>
            </g>
          </g>
        </g>
      </g>
    </g>
  </g>
  <g id="text19" class="st19">
    <g id="g7" class="st19">
      <g id="text6" class="st19">
        <g class="st19">
          <g class="st19">
            <g class="st19">
              <g class="st19">
                <text class="st21" transform="translate(360.1 65.6)"><tspan x="0" y="0">rasTair</tspan></text>
              </g>
            </g>
          </g>
        </g>
      </g>
    </g>
  </g>
  <g id="text20" class="st19">
    <g id="g8" class="st19">
      <g id="text7" class="st19">
        <g class="st19">
          <g class="st19">
            <g class="st19">
              <g class="st19">
                <text class="st21" transform="translate(171.3 125.4)"><tspan x="0" y="0">cat</tspan></text>
              </g>
            </g>
          </g>
        </g>
      </g>
    </g>
  </g>
  <g id="g24">
    <g id="g23">
      <rect id="rect20" class="st27" x="105.9" y="74.4" width="28.6" height="35.7"/>
      <rect id="rect21" class="st29" x="104.1" y="88.7" width="32.2" height="14.3"/>
      <rect id="rect22" class="st27" x="107.7" y="76.2" width="28.6" height="35.7"/>
      <rect id="rect23" class="st28" x="105.9" y="90.5" width="32.1" height="14.3"/>
    </g>
    <g id="text23" class="st19">
      <g id="g9" class="st19">
        <g id="text8-9" class="st19">
          <g class="st19">
            <g class="st19">
              <g class="st19">
                <g class="st19">
                  <text class="st18" transform="translate(113.3 100.3)"><tspan x="0" y="0">fastq</tspan></text>
                </g>
              </g>
            </g>
          </g>
        </g>
      </g>
    </g>
  </g>
  <path id="path27" class="st5" d="M359.8,77.4h30.4c.3,0,.6.3.6.6v30.3c0,.3-.3.6-.6.6h-30.4c-.3,0-.6-.3-.6-.6v-30.3c0-.3.3-.6.6-.6h0Z"/>
  <g id="text32" class="st19">
    <g id="g10" class="st19">
      <g id="text9-6" class="st19">
        <g class="st19">
          <g class="st19">
            <g class="st19">
              <g class="st19">
                <text class="st21" transform="translate(360.1 125.4)"><tspan x="0" y="0">rasTair</tspan></text>
              </g>
            </g>
          </g>
        </g>
      </g>
    </g>
    <g id="g11" class="st19">
      <g id="text11" class="st19">
        <g class="st19">
          <g class="st19">
            <g class="st19">
              <g class="st19">
                <text class="st17" transform="translate(357.2 136.2)"><tspan x="0" y="0">intersect</tspan></text>
              </g>
            </g>
          </g>
        </g>
      </g>
    </g>
  </g>
  <g id="text33" class="st19">
    <g id="g12" class="st19">
      <g id="text12" class="st19">
        <g class="st19">
          <g class="st19">
            <g class="st19">
              <g class="st19">
                <text class="st21" transform="translate(417.6 65.6)"><tspan x="0" y="0">asTair</tspan></text>
              </g>
            </g>
          </g>
        </g>
      </g>
    </g>
  </g>
  <g id="text37" class="st19">
    <g id="g13" class="st19">
      <g id="text13" class="st19">
        <g class="st19">
          <g class="st19">
            <g class="st19">
              <g class="st19">
                <text class="st21" transform="translate(417.6 125.4)"><tspan x="0" y="0">asTair</tspan></text>
              </g>
            </g>
          </g>
        </g>
      </g>
    </g>
    <g id="g15" class="st19">
      <g id="text15" class="st19">
        <g class="st19">
          <g class="st19">
            <g class="st19">
              <g class="st19">
                <text class="st17" transform="translate(412.8 136.2)"><tspan x="0" y="0">intersect</tspan></text>
              </g>
            </g>
          </g>
        </g>
      </g>
    </g>
  </g>
  <g>
    <rect id="rect39" class="st27" x="471" y="75.2" width="28.6" height="35.7"/>
    <rect id="rect40" class="st28" x="469.2" y="89.5" width="32.1" height="14.3"/>
    <g id="text40" class="st19">
      <g id="g16" class="st19">
        <g id="text16" class="st19">
          <g class="st19">
            <g class="st19">
              <g class="st19">
                <g class="st19">
                  <text class="st18" transform="translate(479.7 99.3)"><tspan x="0" y="0">tsv</tspan></text>
                </g>
              </g>
            </g>
          </g>
        </g>
      </g>
    </g>
  </g>
  <g id="text42" class="st19">
    <g id="g17" class="st19">
      <g id="text17" class="st19">
        <g class="st19">
          <g class="st19">
            <g class="st19">
              <g class="st19">
                <text class="st21" transform="translate(311.6 114.5)"><tspan x="0" y="0">PyMbias</tspan></text>
              </g>
            </g>
          </g>
        </g>
      </g>
    </g>
  </g>
  <path id="path42" class="st9" d="M294.1,93.1h-35.2,35.2Z"/>
  <g id="text47" class="st19">
    <g id="g21" class="st19">
      <g id="text21" class="st19">
        <g class="st19">
          <g class="st19">
            <g class="st19">
              <g class="st19">
                <text class="st21" transform="translate(244.3 114.5)"><tspan x="0" y="0">GATK4</tspan></text>
              </g>
            </g>
          </g>
        </g>
      </g>
    </g>
    <g id="g22" class="st19">
      <g id="text22" class="st19">
        <g class="st19">
          <g class="st19">
            <g class="st19">
              <g class="st19">
                <text class="st17" transform="translate(227.7 125.3)"><tspan x="0" y="0">MarkDuplicates</tspan></text>
              </g>
            </g>
          </g>
        </g>
      </g>
    </g>
  </g>
  <circle id="circle61" cx=".2" cy=".9" r="3.4">
    <animateMotion accumulate="none" additive="replace" begin="0s" calcMode="paced" dur="10s" fill="remove" keyPoints="1;0" keyTimes="0;1" repeatCount="indefinite" restart="always">
      <mpath href="#path1"/>
    </animateMotion>
  </circle>
  <circle id="circle62" cx=".2" cy=".9" r="3.4">
    <animateMotion accumulate="none" additive="replace" begin="0s" calcMode="paced" dur="10s" fill="remove" keyPoints="1;0" keyTimes="0;1" repeatCount="indefinite" restart="always">
      <mpath href="#path1-5"/>
    </animateMotion>
  </circle>
  <g id="g6" class="st19">
    <g id="text4-6" class="st19">
      <g class="st19">
        <g class="st19">
          <g class="st19">
            <g class="st19">
              <text class="st24" transform="translate(212.8 80.3)"><tspan x="0" y="0">BWA</tspan></text>
            </g>
          </g>
        </g>
      </g>
    </g>
  </g>
  <g>
    <polygon class="st15" points="70.5 7 58.6 34.6 55.1 34.6 67 7 70.5 7"/>
    <g class="st19">
      <g class="st19">
        <g class="st19">
          <g class="st19">
            <text class="st20" transform="translate(6 31.4)"><tspan x="0" y="0">CTI</tspan></text>
          </g>
        </g>
      </g>
    </g>
    <g class="st19">
      <g class="st19">
        <g class="st19">
          <g class="st19">
            <text class="st23" transform="translate(134.3 30.1)"><tspan x="0" y="0">inn</tspan></text>
          </g>
        </g>
      </g>
    </g>
    <g class="st19">
      <g class="st19">
        <g class="st19">
          <g class="st19">
            <g class="st19">
              <text class="st22" transform="translate(72.8 30.1)"><tspan x="0" y="0">MST</tspan></text>
            </g>
          </g>
        </g>
      </g>
    </g>
  </g>
  <path id="rect25" class="st4" d="M177.9,71.9h0c3.1,0,5.6,2.5,5.6,5.6h0c0,3.1-2.5,5.6-5.6,5.6h0c-3.1,0-5.6-2.5-5.6-5.6h0c0-3.1,2.5-5.6,5.6-5.6Z"/>
  <path id="rect24" class="st4" d="M177.9,103.4h0c3.1,0,5.6,2.5,5.6,5.6h0c0,3.1-2.5,5.6-5.6,5.6h0c-3.1,0-5.6-2.5-5.6-5.6h0c0-3.1,2.5-5.6,5.6-5.6Z"/>
  <path id="rect41" class="st4" d="M223.4,87.5h0c3.1,0,5.6,2.5,5.6,5.6h0c0,3.1-2.5,5.6-5.6,5.6h0c-3.1,0-5.6-2.5-5.6-5.6h0c0-3.1,2.5-5.6,5.6-5.6Z"/>
  <path id="rect43" class="st4" d="M258.7,87.5h0c3.1,0,5.6,2.5,5.6,5.6h0c0,3.1-2.5,5.6-5.6,5.6h0c-3.1,0-5.6-2.5-5.6-5.6h0c0-3.1,2.5-5.6,5.6-5.6Z"/>
  <path id="rect44" class="st4" d="M294.1,87.5h0c3.1,0,5.6,2.5,5.6,5.6h0c0,3.1-2.5,5.6-5.6,5.6h0c-3.1,0-5.6-2.5-5.6-5.6h0c0-3.1,2.5-5.6,5.6-5.6Z"/>
  <path id="rect42" class="st4" d="M329.4,87.5h0c3.1,0,5.6,2.5,5.6,5.6h0c0,3.1-2.5,5.6-5.6,5.6h0c-3.1,0-5.6-2.5-5.6-5.6h0c0-3.1,2.5-5.6,5.6-5.6Z"/>
  <path id="rect28" class="st4" d="M375,71.8h0c3.1,0,5.6,2.5,5.6,5.6h0c0,3.1-2.5,5.6-5.6,5.6h0c-3.1,0-5.6-2.5-5.6-5.6h0c0-3.1,2.5-5.6,5.6-5.6Z"/>
  <path id="rect26" class="st4" d="M430.6,71.8h0c3.1,0,5.6,2.5,5.6,5.6h0c0,3.1-2.5,5.6-5.6,5.6h0c-3.1,0-5.6-2.5-5.6-5.6h0c0-3.1,2.5-5.6,5.6-5.6Z"/>
  <path id="rect27" class="st4" d="M430.6,103.3h0c3.1,0,5.6,2.5,5.6,5.6h0c0,3.1-2.5,5.6-5.6,5.6h0c-3.1,0-5.6-2.5-5.6-5.6h0c0-3.1,2.5-5.6,5.6-5.6Z"/>
  <path id="rect29" class="st4" d="M375,103.3h0c3.1,0,5.6,2.5,5.6,5.6h0c0,3.1-2.5,5.6-5.6,5.6h0c-3.1,0-5.6-2.5-5.6-5.6h0c0-3.1,2.5-5.6,5.6-5.6Z"/>
  <g>
    <path d="M186.8,30.6l3.3-8.7h.8l-3.4,8.7h-.8Z"/>
    <path d="M191.8,25.9c0-.6,0-1.1,0-1.6h.9v.9h0c.3-.6.9-1.1,1.8-1.1s1.4.5,1.6,1.2h0c.2-.3.4-.6.6-.8.3-.3.7-.4,1.3-.4s1.9.5,1.9,2.5v3.4h-1v-3.3c0-1.1-.4-1.8-1.3-1.8s-1.1.4-1.2,1c0,.1,0,.3,0,.5v3.6h-1v-3.5c0-.9-.4-1.6-1.2-1.6s-1.1.5-1.3,1.1c0,.2,0,.3,0,.5v3.5h-1v-4.2Z"/>
    <path d="M201.4,30.1v-.3c.8,0,.9-.1.9-1v-4c0-.9,0-.9-.9-1v-.3h2.7v.3c-.8,0-.9.1-.9,1v4c0,.9,0,.9.9,1v.3h-2.7Z"/>
    <path d="M205.3,29c.3.2.9.4,1.4.4.8,0,1.1-.4,1.1-.9s-.3-.8-1.1-1.1c-1-.4-1.5-.9-1.5-1.6s.8-1.7,2-1.7,1.1.2,1.4.4l-.3.8c-.2-.1-.6-.3-1.2-.3s-1,.4-1,.8.3.7,1.1,1c1,.4,1.5.9,1.5,1.8s-.8,1.7-2.2,1.7-1.2-.2-1.6-.4l.3-.8Z"/>
    <path d="M211.4,22.6v1.7h1.5v.8h-1.5v3.1c0,.7.2,1.1.8,1.1s.5,0,.6,0v.8c-.2,0-.5.1-.9.1s-.9-.2-1.1-.4c-.3-.3-.4-.8-.4-1.5v-3.2h-.9v-.8h.9v-1.4l1-.3Z"/>
    <path d="M213.2,30.6l3.3-8.7h.8l-3.4,8.7h-.8Z"/>
  </g>
</svg>