<?xml version="1.0" encoding="UTF-8"?>
<svg id="Layer_1" xmlns="http://www.w3.org/2000/svg" xmlns:xlink="http://www.w3.org/1999/xlink" version="1.1" viewBox="0 0 504 144">
  <!-- Generator: Adobe Illustrator 29.5.1, SVG Export Plug-In . SVG Version: 2.1.0 Build 141)  -->
  <defs>
    <style>
      .st0 {
        font-size: 8px;
      }

      .st0, .st1, .st2, .st3, .st4, .st5, .st6 {
        isolation: isolate;
      }

      .st0, .st5, .st6, .st7 {
        font-family: MavenPro-Bold, 'Maven Pro';
        font-weight: 700;
      }

      .st8 {
        letter-spacing: 0em;
      }

      .st8, .st9 {
        font-size: 30px;
      }

      .st10 {
        fill: #8575ea;
      }

      .st11, .st5 {
        fill: #001b78;
      }

      .st1, .st12, .st2, .st4 {
        font-size: 9px;
      }

      .st1, .st4 {
        fill: #040404;
      }

      .st1, .st13 {
        font-family: MavenPro-Regular, 'Maven Pro';
      }

      .st14 {
        stroke: #1f1d1d;
      }

      .st14, .st15, .st16, .st17, .st18, .st19, .st20, .st21 {
        stroke-miterlimit: 28.4;
      }

      .st14, .st18, .st22, .st23, .st24 {
        stroke-width: .8px;
      }

      .st14, .st22, .st2 {
        fill: #fff;
      }

      .st15 {
        stroke: url(#linear-gradient2);
      }

      .st15, .st16, .st17, .st18, .st19, .st20, .st21 {
        fill: none;
      }

      .st15, .st16, .st19, .st20, .st21 {
        stroke-width: 4.5px;
      }

      .st16 {
        stroke: url(#linear-gradient1);
      }

      .st17 {
        stroke-width: .7px;
      }

      .st17, .st18 {
        stroke: #469e4f;
      }

      .st22, .st23, .st24 {
        stroke: #040404;
        stroke-miterlimit: 3;
      }

      .st25 {
        fill: #9900db;
      }

      .st26 {
        fill: #a156ea;
      }

      .st2 {
        font-family: Helvetica, Helvetica;
      }

      .st27 {
        fill: #27dcf4;
      }

      .st19 {
        stroke: #9900db;
      }

      .st20 {
        stroke: #27dcf4;
      }

      .st28 {
        font-size: 10px;
      }

      .st29 {
        fill: #82baff;
      }

      .st4 {
        font-family: MavenPro-SemiBold, 'Maven Pro';
        font-weight: 600;
      }

      .st6 {
        font-size: 6px;
      }

      .st23 {
        fill: #1f1d1d;
      }

      .st30 {
        fill: #ad27e6;
      }

      .st21 {
        stroke: url(#linear-gradient);
      }

      .st24 {
        fill: #3a393b;
      }
    </style>
    <linearGradient id="linear-gradient" x1="228.6" y1="-20.3" x2="394.2" y2="-20.3" gradientTransform="translate(0 106.4)" gradientUnits="userSpaceOnUse">
      <stop offset="0" stop-color="#ad27e6"/>
      <stop offset=".3" stop-color="#a156ea"/>
      <stop offset=".7" stop-color="#8575ea"/>
      <stop offset="1" stop-color="#82baff"/>
    </linearGradient>
    <linearGradient id="linear-gradient1" x1="194.8" y1="86.2" x2="230.9" y2="86.2" gradientUnits="userSpaceOnUse">
      <stop offset="0" stop-color="#9900db"/>
      <stop offset="1" stop-color="#ad27e6"/>
    </linearGradient>
    <linearGradient id="linear-gradient2" x1="391.9" y1="-374.6" x2="428" y2="-374.6" gradientTransform="translate(0 -288.4) scale(1 -1)" gradientUnits="userSpaceOnUse">
      <stop offset="0" stop-color="#82baff"/>
      <stop offset="1" stop-color="#27dcf4"/>
    </linearGradient>
  </defs>
  <g class="st3">
    <g class="st3">
      <g class="st3">
        <g class="st3">
          <g class="st3">
            <g class="st3">
              <g class="st3">
                <g class="st3">
                  <text class="st5" transform="translate(6 31.4)"><tspan class="st9" x="0" y="0">CTI</tspan><tspan class="st28" x="45.6" y="0"> </tspan><tspan class="st8" x="48.4" y="0">/MSTinn</tspan></text>
                </g>
              </g>
            </g>
          </g>
        </g>
      </g>
    </g>
  </g>
  <text class="st12" transform="translate(247.7 62.8)"><tspan class="st7"><tspan x="0" y="0">BWA</tspan></tspan><tspan class="st13"><tspan x="-4.7" y="10.8">Sention</tspan></tspan></text>
  <path id="rect1" class="st30" d="M21,71.1h0c2,0,3.6,1.6,3.6,3.6h0c0,2-1.6,3.6-3.6,3.6h0c-2,0-3.6-1.6-3.6-3.6h0c0-2,1.6-3.6,3.6-3.6Z"/>
  <g id="text1" class="st3">
    <g class="st3">
      <g class="st3">
        <g class="st3">
          <g class="st3">
            <g class="st3">
              <g class="st3">
                <g class="st3">
                  <g class="st3">
                    <text class="st6" transform="translate(27.6 76.3)"><tspan x="0" y="0">BWA ( Meth / mem2 )</tspan></text>
                  </g>
                </g>
              </g>
            </g>
          </g>
        </g>
      </g>
    </g>
  </g>
  <path id="rect2" class="st25" d="M21,59.7h0c2,0,3.6,1.6,3.6,3.6h0c0,2-1.6,3.6-3.6,3.6h0c-2,0-3.6-1.6-3.6-3.6h0c0-2,1.6-3.6,3.6-3.6Z"/>
  <g id="text2" class="st3">
    <g class="st3">
      <g class="st3">
        <g class="st3">
          <g class="st3">
            <g class="st3">
              <g class="st3">
                <g class="st3">
                  <g class="st3">
                    <text class="st6" transform="translate(27.6 64.9)"><tspan x="0" y="0">FastQC &amp; cat</tspan></text>
                  </g>
                </g>
              </g>
            </g>
          </g>
        </g>
      </g>
    </g>
  </g>
  <path id="rect3" class="st11" d="M16,44.8h0c3,0,5.4,2.4,5.4,5.4h0c0,3-2.4,5.4-5.4,5.4h0c-3,0-5.4-2.4-5.4-5.4h0c0-3,2.4-5.4,5.4-5.4Z"/>
  <g id="text3" class="st3">
    <g class="st3">
      <g class="st3">
        <g class="st3">
          <g class="st3">
            <g class="st3">
              <g class="st3">
                <g class="st3">
                  <g class="st3">
                    <text class="st0" transform="translate(23.7 52.8)"><tspan x="0" y="0">M</tspan></text>
                    <text class="st0" transform="translate(30.6 52.8)"><tspan x="0" y="0">ethylation </tspan></text>
                    <text class="st0" transform="translate(72.2 52.8)"><tspan x="0" y="0">S</tspan></text>
                    <text class="st0" transform="translate(76.9 52.8)"><tspan x="0" y="0">equencing </tspan></text>
                    <text class="st0" transform="translate(118.5 52.8)"><tspan x="0" y="0">T</tspan></text>
                    <text class="st0" transform="translate(123.2 52.8)"><tspan x="0" y="0">APS</tspan></text>
                  </g>
                </g>
              </g>
            </g>
          </g>
        </g>
      </g>
    </g>
  </g>
  <path id="rect4" class="st26" d="M21,82.5h0c2,0,3.6,1.6,3.6,3.6h0c0,2-1.6,3.6-3.6,3.6h0c-2,0-3.6-1.6-3.6-3.6h0c0-2,1.6-3.6,3.6-3.6Z"/>
  <path id="rect5" class="st10" d="M21,93.9h0c2,0,3.6,1.6,3.6,3.6h0c0,2-1.6,3.6-3.6,3.6h0c-2,0-3.6-1.6-3.6-3.6h0c0-2,1.6-3.6,3.6-3.6Z"/>
  <g id="text5" class="st3">
    <g class="st3">
      <g class="st3">
        <g class="st3">
          <g class="st3">
            <g class="st3">
              <g class="st3">
                <g class="st3">
                  <g class="st3">
                    <text class="st6" transform="translate(27.6 122.2)"><tspan x="0" y="0">rasTair</tspan></text>
                  </g>
                </g>
              </g>
            </g>
          </g>
        </g>
      </g>
    </g>
  </g>
  <path id="rect6" class="st29" d="M21,105.3h0c2,0,3.6,1.6,3.6,3.6h0c0,2-1.6,3.6-3.6,3.6h0c-2,0-3.6-1.6-3.6-3.6h0c0-2,1.6-3.6,3.6-3.6Z"/>
  <path id="rect7" class="st27" d="M21,116.7h0c2,0,3.6,1.6,3.6,3.6h0c0,2-1.6,3.6-3.6,3.6h0c-2,0-3.6-1.6-3.6-3.6h0c0-2,1.6-3.6,3.6-3.6Z"/>
  <g id="text8" class="st3">
    <g class="st3">
      <g class="st3">
        <g class="st3">
          <g class="st3">
            <g class="st3">
              <g class="st3">
                <g class="st3">
                  <g class="st3">
                    <text class="st6" transform="translate(27.6 110.7)"><tspan x="0" y="0">PyMbias</tspan></text>
                  </g>
                </g>
              </g>
            </g>
          </g>
        </g>
      </g>
    </g>
  </g>
  <g id="text9" class="st3">
    <g class="st3">
      <g class="st3">
        <g class="st3">
          <g class="st3">
            <g class="st3">
              <g class="st3">
                <g class="st3">
                  <g class="st3">
                    <text class="st6" transform="translate(27.6 99.3)"><tspan x="0" y="0">BedTools Intersect</tspan></text>
                  </g>
                </g>
              </g>
            </g>
          </g>
        </g>
      </g>
    </g>
  </g>
  <g id="text10" class="st3">
    <g class="st3">
      <g class="st3">
        <g class="st3">
          <g class="st3">
            <g class="st3">
              <g class="st3">
                <g class="st3">
                  <g class="st3">
                    <text class="st6" transform="translate(27.6 87.8)"><tspan x="0" y="0">GATK4 MarkDuplicates</tspan></text>
                  </g>
                </g>
              </g>
            </g>
          </g>
        </g>
      </g>
    </g>
  </g>
  <path id="path1" class="st18" d="M459,85.6h-33.2v-15.6h-31.6v15.5h-165.5v-15.5h-31.6s0,15.7,0,15.5h-23.8"/>
  <path id="path1-5" class="st17" d="M459,85.6h-33.2c0,0,0,14.7,0,14.7h-31.6v-14.8h-165.5v14.7h-31.6s0-14.8,0-14.7h-23.8"/>
  <path id="path2" class="st21" d="M394.2,86.1h-165.6,165.6Z"/>
  <path id="path5" class="st20" d="M449.8,86.1h-24.1,24.1Z"/>
  <path id="path6" class="st19" d="M197.2,86.3h-25.9,25.9Z"/>
  <path id="path8" class="st16" d="M197.7,70.4h30.4c.3,0,.6.3.6.6v30.3c0,.3-.3.6-.6.6h-30.4c-.3,0-.6-.3-.6-.6v-30.3c0-.3.3-.6.6-.6Z"/>
  <g id="text10-2" class="st3">
    <g id="g2" class="st3">
      <g id="text1-3" class="st3">
        <g class="st3">
          <g class="st3">
            <g class="st3">
              <g class="st3">
                <g class="st3">
                  <g class="st3">
                    <g class="st3">
                      <g class="st3">
                        <text class="st4" transform="translate(197.8 58.6)"><tspan x="0" y="0">FastQC</tspan></text>
                      </g>
                    </g>
                  </g>
                </g>
              </g>
            </g>
          </g>
        </g>
      </g>
    </g>
  </g>
  <g id="text14" class="st3">
    <g id="g3" class="st3">
      <g id="text2-9" class="st3">
        <g class="st3">
          <g class="st3">
            <g class="st3">
              <g class="st3">
                <g class="st3">
                  <g class="st3">
                    <g class="st3">
                      <g class="st3">
                        <text class="st4" transform="translate(309.7 62.8)"><tspan x="0" y="0">BedTools</tspan></text>
                      </g>
                    </g>
                  </g>
                </g>
              </g>
            </g>
          </g>
        </g>
      </g>
    </g>
    <g id="g4" class="st3">
      <g id="text3-0" class="st3">
        <g class="st3">
          <g class="st3">
            <g class="st3">
              <g class="st3">
                <g class="st3">
                  <g class="st3">
                    <g class="st3">
                      <g class="st3">
                        <text class="st1" transform="translate(311.3 73.6)"><tspan x="0" y="0">intersect</tspan></text>
                      </g>
                    </g>
                  </g>
                </g>
              </g>
            </g>
          </g>
        </g>
      </g>
    </g>
  </g>
  <g id="text19" class="st3">
    <g id="g7" class="st3">
      <g id="text6" class="st3">
        <g class="st3">
          <g class="st3">
            <g class="st3">
              <g class="st3">
                <g class="st3">
                  <g class="st3">
                    <g class="st3">
                      <g class="st3">
                        <text class="st4" transform="translate(395.1 58.6)"><tspan x="0" y="0">rasTair</tspan></text>
                      </g>
                    </g>
                  </g>
                </g>
              </g>
            </g>
          </g>
        </g>
      </g>
    </g>
  </g>
  <g id="text20" class="st3">
    <g id="g8" class="st3">
      <g id="text7" class="st3">
        <g class="st3">
          <g class="st3">
            <g class="st3">
              <g class="st3">
                <g class="st3">
                  <g class="st3">
                    <g class="st3">
                      <g class="st3">
                        <text class="st4" transform="translate(206.3 118.4)"><tspan x="0" y="0">cat</tspan></text>
                      </g>
                    </g>
                  </g>
                </g>
              </g>
            </g>
          </g>
        </g>
      </g>
    </g>
  </g>
  <g id="g24">
    <g id="g23">
      <rect id="rect20" class="st22" x="140.9" y="67.4" width="28.6" height="35.7"/>
      <rect id="rect21" class="st24" x="139.1" y="81.7" width="32.2" height="14.3"/>
      <rect id="rect22" class="st22" x="142.7" y="69.2" width="28.6" height="35.7"/>
      <rect id="rect23" class="st23" x="140.9" y="83.5" width="32.1" height="14.3"/>
    </g>
    <g id="text23" class="st3">
      <g id="g9" class="st3">
        <g id="text8-9" class="st3">
          <g class="st3">
            <g class="st3">
              <g class="st3">
                <g class="st3">
                  <g class="st3">
                    <g class="st3">
                      <g class="st3">
                        <g class="st3">
                          <text class="st2" transform="translate(148.3 93.3)"><tspan x="0" y="0">fastq</tspan></text>
                        </g>
                      </g>
                    </g>
                  </g>
                </g>
              </g>
            </g>
          </g>
        </g>
      </g>
    </g>
  </g>
  <path id="path27" class="st15" d="M394.8,70.4h30.4c.3,0,.6.3.6.6v30.3c0,.3-.3.6-.6.6h-30.4c-.3,0-.6-.3-.6-.6v-30.3c0-.3.3-.6.6-.6h0Z"/>
  <g id="text32" class="st3">
    <g id="g10" class="st3">
      <g id="text9-6" class="st3">
        <g class="st3">
          <g class="st3">
            <g class="st3">
              <g class="st3">
                <g class="st3">
                  <g class="st3">
                    <g class="st3">
                      <g class="st3">
                        <text class="st4" transform="translate(395.1 118.4)"><tspan x="0" y="0">rasTair</tspan></text>
                      </g>
                    </g>
                  </g>
                </g>
              </g>
            </g>
          </g>
        </g>
      </g>
    </g>
    <g id="g11" class="st3">
      <g id="text11" class="st3">
        <g class="st3">
          <g class="st3">
            <g class="st3">
              <g class="st3">
                <g class="st3">
                  <g class="st3">
                    <g class="st3">
                      <g class="st3">
                        <text class="st1" transform="translate(392.2 129.2)"><tspan x="0" y="0">intersect</tspan></text>
                      </g>
                    </g>
                  </g>
                </g>
              </g>
            </g>
          </g>
        </g>
      </g>
    </g>
  </g>
  <g>
    <rect id="rect39" class="st22" x="451.8" y="67.4" width="28.6" height="35.7"/>
    <rect id="rect40" class="st23" x="450" y="81.7" width="32.1" height="14.3"/>
    <g id="text40" class="st3">
      <g id="g16" class="st3">
        <g id="text16" class="st3">
          <g class="st3">
            <g class="st3">
              <g class="st3">
                <g class="st3">
                  <g class="st3">
                    <g class="st3">
                      <g class="st3">
                        <g class="st3">
                          <text class="st2" transform="translate(460.5 91.5)"><tspan x="0" y="0">tsv</tspan></text>
                        </g>
                      </g>
                    </g>
                  </g>
                </g>
              </g>
            </g>
          </g>
        </g>
      </g>
    </g>
  </g>
  <g id="text42" class="st3">
    <g id="g17" class="st3">
      <g id="text17" class="st3">
        <g class="st3">
          <g class="st3">
            <g class="st3">
              <g class="st3">
                <g class="st3">
                  <g class="st3">
                    <g class="st3">
                      <g class="st3">
                        <text class="st4" transform="translate(346.6 107.5)"><tspan x="0" y="0">PyMbias</tspan></text>
                      </g>
                    </g>
                  </g>
                </g>
              </g>
            </g>
          </g>
        </g>
      </g>
    </g>
  </g>
  <g id="text47" class="st3">
    <g id="g21" class="st3">
      <g id="text21" class="st3">
        <g class="st3">
          <g class="st3">
            <g class="st3">
              <g class="st3">
                <g class="st3">
                  <g class="st3">
                    <g class="st3">
                      <g class="st3">
                        <text class="st4" transform="translate(279.3 107.5)"><tspan x="0" y="0">GATK4</tspan></text>
                      </g>
                    </g>
                  </g>
                </g>
              </g>
            </g>
          </g>
        </g>
      </g>
    </g>
    <g id="g22" class="st3">
      <g id="text22" class="st3">
        <g class="st3">
          <g class="st3">
            <g class="st3">
              <g class="st3">
                <g class="st3">
                  <g class="st3">
                    <g class="st3">
                      <g class="st3">
                        <text class="st1" transform="translate(262.7 118.3)"><tspan x="0" y="0">MarkDuplicates</tspan></text>
                      </g>
                    </g>
                  </g>
                </g>
              </g>
            </g>
          </g>
        </g>
      </g>
    </g>
  </g>
  <circle id="circle61" cx=".2" cy=".9" r="3.4">
    <animateMotion accumulate="none" additive="replace" begin="0s" calcMode="paced" dur="10s" fill="remove" keyPoints="1;0" keyTimes="0;1" repeatCount="indefinite" restart="always">
      <mpath href="#path1"/>
    </animateMotion>
  </circle>
  <circle id="circle62" cx=".2" cy=".9" r="3.4">
    <animateMotion accumulate="none" additive="replace" begin="0s" calcMode="paced" dur="10s" fill="remove" keyPoints="1;0" keyTimes="0;1" repeatCount="indefinite" restart="always">
      <mpath href="#path1-5"/>
    </animateMotion>
  </circle>
  <path id="rect25" class="st14" d="M212.9,64.9h0c3.1,0,5.6,2.5,5.6,5.6h0c0,3.1-2.5,5.6-5.6,5.6h0c-3.1,0-5.6-2.5-5.6-5.6h0c0-3.1,2.5-5.6,5.6-5.6Z"/>
  <path id="rect24" class="st14" d="M212.9,96.4h0c3.1,0,5.6,2.5,5.6,5.6h0c0,3.1-2.5,5.6-5.6,5.6h0c-3.1,0-5.6-2.5-5.6-5.6h0c0-3.1,2.5-5.6,5.6-5.6Z"/>
  <path id="rect41" class="st14" d="M258.4,80.5h0c3.1,0,5.6,2.5,5.6,5.6h0c0,3.1-2.5,5.6-5.6,5.6h0c-3.1,0-5.6-2.5-5.6-5.6h0c0-3.1,2.5-5.6,5.6-5.6Z"/>
  <path id="rect43" class="st14" d="M293.7,80.5h0c3.1,0,5.6,2.5,5.6,5.6h0c0,3.1-2.5,5.6-5.6,5.6h0c-3.1,0-5.6-2.5-5.6-5.6h0c0-3.1,2.5-5.6,5.6-5.6Z"/>
  <path id="rect44" class="st14" d="M329.1,80.5h0c3.1,0,5.6,2.5,5.6,5.6h0c0,3.1-2.5,5.6-5.6,5.6h0c-3.1,0-5.6-2.5-5.6-5.6h0c0-3.1,2.5-5.6,5.6-5.6Z"/>
  <path id="rect42" class="st14" d="M364.4,80.5h0c3.1,0,5.6,2.5,5.6,5.6h0c0,3.1-2.5,5.6-5.6,5.6h0c-3.1,0-5.6-2.5-5.6-5.6h0c0-3.1,2.5-5.6,5.6-5.6Z"/>
  <path id="rect28" class="st14" d="M410,64.8h0c3.1,0,5.6,2.5,5.6,5.6h0c0,3.1-2.5,5.6-5.6,5.6h0c-3.1,0-5.6-2.5-5.6-5.6h0c0-3.1,2.5-5.6,5.6-5.6Z"/>
  <path id="rect29" class="st14" d="M410,96.3h0c3.1,0,5.6,2.5,5.6,5.6h0c0,3.1-2.5,5.6-5.6,5.6h0c-3.1,0-5.6-2.5-5.6-5.6h0c0-3.1,2.5-5.6,5.6-5.6Z"/>
  <g>
    <path d="M174.8,31.6l3.3-8.7h.8l-3.4,8.7h-.8,0Z"/>
    <path d="M179.8,26.9v-1.6h.9v.9h0c.3-.6.9-1.1,1.8-1.1s1.4.5,1.6,1.2h0c.2-.3.4-.6.6-.8.3-.3.7-.4,1.3-.4s1.9.5,1.9,2.5v3.4h-1v-3.3c0-1.1-.4-1.8-1.3-1.8s-1.1.4-1.2,1v4.1h-1v-3.5c0-.9-.4-1.6-1.2-1.6s-1.1.5-1.3,1.1v4h-1v-4.2h-.1Z"/>
    <path d="M189.4,31.1v-.3c.8,0,.9-.1.9-1v-4c0-.6-.3-.9-.9-1v-.3h2.7v.3c-.8,0-.9.1-.9,1v4c0,.6.3.9.9,1v.3h-2.7Z"/>
    <path d="M193.3,30c.3.2.9.4,1.4.4.8,0,1.1-.4,1.1-.9s-.3-.8-1.1-1.1c-1-.4-1.5-.9-1.5-1.6s.8-1.7,2-1.7,1.1.2,1.4.4l-.3.8c-.2-.1-.6-.3-1.2-.3s-1,.4-1,.8.3.7,1.1,1c1,.4,1.5.9,1.5,1.8s-.8,1.7-2.2,1.7-1.2-.2-1.6-.4l.3-.8h.1Z"/>
    <path d="M199.4,23.6v1.7h1.5v.8h-1.5v3.1c0,.7.2,1.1.8,1.1h.6v.8c-.2,0-.5.1-.9.1s-.9-.2-1.1-.4c-.3-.3-.4-.8-.4-1.5v-3.2h-.9v-.8h.9v-1.4l1-.3h0Z"/>
    <path d="M201.2,31.6l3.3-8.7h.8l-3.4,8.7h-.8,0Z"/>
  </g>
  <path class="st11" d="M480.4,12.7l9.1-9.1,9.2,9s-.2.3-.3.4c-.5.6-1.1,1.2-1.6,1.8l-5.8-5.5v9.6h6.8v2.9h-6.7v2.1s.1.5.2.5h6.5v2.9h-6.8v2s.1.5.2.5h6.5v2.7h-6.5l-.2.2v6.7h-3v-6.9h-6.5v-2.8h6.6v-2.4h-6.6v-2.9h6.6v-2.6h-6.6v-2.9h6.6v-9.6l-5.5,5.5c-.1,0-.8-.7-1-.8l-1.2-1.2h0Z"/>
</svg>