<?xml version="1.0" encoding="UTF-8"?>
<svg id="Layer_1" xmlns="http://www.w3.org/2000/svg" xmlns:xlink="http://www.w3.org/1999/xlink" version="1.1" viewBox="0 0 1939.7 920.4">
  <!-- Generator: Adobe Illustrator 29.5.1, SVG Export Plug-In . SVG Version: 2.1.0 Build 141)  -->
  <defs>
    <style>
      .st0 {
        fill: #001b78;
      }

      .st0, .st1, .st2 {
        font-family: MavenPro-Bold, 'Maven Pro';
        font-size: 402px;
        font-weight: 700;
      }

      .st3 {
        fill: url(#linear-gradient1);
      }

      .st4 {
        fill: url(#linear-gradient);
      }

      .st5, .st1 {
        isolation: isolate;
      }

      .st1 {
        fill: #f26724;
      }

      .st2 {
        fill: #001b7b;
      }
    </style>
    <linearGradient id="linear-gradient" x1="681.6" y1="215.7" x2="877.6" y2="215.7" gradientUnits="userSpaceOnUse">
      <stop offset="0" stop-color="#fff"/>
      <stop offset=".1" stop-color="#fbe588"/>
      <stop offset=".2" stop-color="#ffcc25"/>
      <stop offset=".4" stop-color="#f26724"/>
      <stop offset=".5" stop-color="#c85641"/>
      <stop offset=".5" stop-color="#a5495a"/>
      <stop offset=".5" stop-color="#8a3e6d"/>
      <stop offset=".6" stop-color="#77367b"/>
      <stop offset=".6" stop-color="#6b3283"/>
      <stop offset=".7" stop-color="#683186"/>
      <stop offset="1" stop-color="#001b78"/>
    </linearGradient>
    <linearGradient id="linear-gradient1" x1="1691.6" y1="838.2" x2="1691.6" y2="82.2" xlink:href="#linear-gradient"/>
  </defs>
  <polygon class="st4" points="877.6 40.7 725.6 390.7 681.6 390.7 832.6 40.7 877.6 40.7"/>
  <text class="st0" transform="translate(59.1 350.6)"><tspan x="0" y="0">CTI</tspan></text>
  <text class="st2" transform="translate(851.1 839.2)"><tspan x="0" y="0">inn</tspan></text>
  <g class="st5">
    <text class="st1" transform="translate(45.4 839.2)"><tspan x="0" y="0">MST</tspan></text>
  </g>
  <path class="st3" d="M1499,273.2l192.3-191,193,190.1c.7,1.4-4.2,6.7-5.5,8.1-11,12.6-23.6,24.2-34.6,37.1l-122.5-114.9v202.8h142.2v61.6h-140.7c0,0-1.3,1.2-1.3,1.3v43.5c0,1.7,2.9,10.4,5,10.4h137.2v61.6h-142.2v41.2c0,1.3,2.9,9.5,4.1,9.5h136.7c0,0,1.3,1.2,1.3,1.3v56.1c0,0-1.2,1.3-1.3,1.3h-135.8c-.4,0-5,4.6-5,5v139.9h-62.4v-144.9h-137.5v-58.9h137.6v-50.7h-137.6v-61.6h137.6v-55.2h-137.6v-61.6h137.6v-202.8l-115.6,114.8c-3,.6-16.5-14.7-20.3-16.6l-24.4-25.8v-1.8Z"/>
</svg>