<?xml version="1.0" encoding="UTF-8"?>
<svg id="Layer_1" xmlns="http://www.w3.org/2000/svg" xmlns:xlink="http://www.w3.org/1999/xlink" version="1.1" viewBox="0 0 2880 360">
  <!-- Generator: Adobe Illustrator 29.5.1, SVG Export Plug-In . SVG Version: 2.1.0 Build 141)  -->
  <defs>
    <style>
      .st0 {
        fill: url(#linear-gradient1);
      }

      .st1 {
        fill: url(#linear-gradient);
      }

      .st2, .st3, .st4, .st5 {
        isolation: isolate;
      }

      .st3 {
        fill: #001b78;
      }

      .st3, .st4, .st5 {
        font-family: MavenPro-Bold, 'Maven Pro';
        font-size: 402px;
        font-weight: 700;
      }

      .st4 {
        fill: #001b7b;
      }

      .st5 {
        fill: #f26724;
      }
    </style>
    <linearGradient id="linear-gradient" x1="1044.5" y1="182" x2="1240.5" y2="182" gradientTransform="translate(0 362) scale(1 -1)" gradientUnits="userSpaceOnUse">
      <stop offset="0" stop-color="#fff"/>
      <stop offset="0" stop-color="#fbe588"/>
      <stop offset=".2" stop-color="#ffcc25"/>
      <stop offset=".4" stop-color="#f26724"/>
      <stop offset=".5" stop-color="#c85641"/>
      <stop offset=".5" stop-color="#a5495a"/>
      <stop offset=".5" stop-color="#8a3e6d"/>
      <stop offset=".6" stop-color="#77367b"/>
      <stop offset=".6" stop-color="#6b3283"/>
      <stop offset=".7" stop-color="#683186"/>
      <stop offset="1" stop-color="#001b78"/>
    </linearGradient>
    <linearGradient id="linear-gradient1" x1="279.7" y1="20" x2="279.7" y2="344" xlink:href="#linear-gradient"/>
  </defs>
  <polygon class="st1" points="1240.5 5 1088.5 355 1044.5 355 1195.5 5 1240.5 5"/>
  <g class="st2">
    <text class="st3" transform="translate(422 314.9)"><tspan x="0" y="0">CTI</tspan></text>
  </g>
  <g class="st2">
    <text class="st4" transform="translate(2078.3 320.1)"><tspan x="0" y="0">inn</tspan></text>
  </g>
  <g class="st2">
    <g class="st2">
      <text class="st5" transform="translate(1272.6 320.1)"><tspan x="0" y="0">MST</tspan></text>
    </g>
  </g>
  <path class="st0" d="M197.1,99.9l82.4-81.9,82.7,81.5c.3.6-1.8,2.9-2.4,3.5-4.7,5.4-10.1,10.4-14.8,15.9l-52.5-49.2v86.9h61v26.4h-60.3s-.6.5-.6.6v18.6c0,.7,1.2,4.5,2.1,4.5h58.8v26.4h-61v17.7c0,.6,1.2,4.1,1.8,4.1h58.6s.6.5.6.6v24s-.5.6-.6.6h-58.2c-.2,0-2.1,2-2.1,2.1v60h-26.7v-62.1h-58.9v-25.2h59v-21.7h-59v-26.4h59v-23.7h-59v-26.4h59v-86.9l-49.5,49.2c-1.3.3-7.1-6.3-8.7-7.1l-10.5-11.1v-.8h-.1Z"/>
</svg>