<?xml version="1.0" encoding="UTF-8"?>
<svg id="Layer_1" xmlns="http://www.w3.org/2000/svg" xmlns:xlink="http://www.w3.org/1999/xlink" version="1.1" viewBox="0 0 350 65">
  <!-- Generator: Adobe Illustrator 29.8.1, SVG Export Plug-In . SVG Version: 2.1.1 Build 2)  -->
  <defs>
    <style>
      .st0 {
        fill: url(#linear-gradient2);
      }

      .st1 {
        fill: url(#linear-gradient1);
      }

      .st2 {
        fill: url(#linear-gradient3);
      }

      .st3 {
        fill: url(#linear-gradient4);
      }

      .st4 {
        fill: url(#linear-gradient);
      }

      .st5, .st6 {
        isolation: isolate;
      }

      .st7 {
        fill: #a6a6a6;
      }

      .st6 {
        font-size: 47.3px;
      }

      .st6, .st8 {
        fill: #f0f0f0;
        font-family: MavenPro-Bold, 'Maven Pro';
        font-weight: 700;
      }

      .st8 {
        font-size: 48px;
      }
    </style>
    <linearGradient id="linear-gradient" x1="164.2" y1="32" x2="187.5" y2="32" gradientUnits="userSpaceOnUse">
      <stop offset="0" stop-color="#896be2"/>
      <stop offset=".5" stop-color="#955de2"/>
      <stop offset="1" stop-color="#a156ea"/>
    </linearGradient>
    <linearGradient id="linear-gradient1" x1="101" y1="33.1" x2="123.8" y2="33.1" gradientUnits="userSpaceOnUse">
      <stop offset="0" stop-color="#6cd4f2"/>
      <stop offset=".5" stop-color="#955de2"/>
      <stop offset="1" stop-color="#d200ff"/>
    </linearGradient>
    <linearGradient id="linear-gradient2" x1="125.4" y1="34.1" x2="158.7" y2="34.1" gradientTransform="translate(0 65.9) scale(1 -1)" gradientUnits="userSpaceOnUse">
      <stop offset="0" stop-color="#6cd4f2"/>
      <stop offset=".3" stop-color="#79c6f5"/>
      <stop offset=".7" stop-color="#8798ee"/>
      <stop offset="1" stop-color="#896be2"/>
    </linearGradient>
    <linearGradient id="linear-gradient3" x1="190.5" y1="34.1" x2="216.1" y2="34.1" gradientTransform="translate(0 65.9) scale(1 -1)" gradientUnits="userSpaceOnUse">
      <stop offset="0" stop-color="#a156ea"/>
      <stop offset=".5" stop-color="#ad27e6"/>
      <stop offset="1" stop-color="#d200ff"/>
    </linearGradient>
    <linearGradient id="linear-gradient4" x1="1" y1="1517.5" x2="31.1" y2="1534.8" gradientTransform="translate(0 -1493.9)" gradientUnits="userSpaceOnUse">
      <stop offset="0" stop-color="#27dcf4"/>
      <stop offset=".2" stop-color="#82baff"/>
      <stop offset=".4" stop-color="#8575ea"/>
      <stop offset=".6" stop-color="#a156ea"/>
      <stop offset=".8" stop-color="#ad27e6"/>
      <stop offset="1" stop-color="#d200ff"/>
    </linearGradient>
  </defs>
  <path class="st4" d="M176,48.7c-1.6,0-3.1,0-4.4-.2-1.3-.2-2.5-.4-3.6-.7-1.1-.3-2.2-.7-3.3-1.2v-7.4c1.5,1.2,3.1,2.1,5,2.7,1.9.6,3.6.9,5.3.9s2.6-.3,3.4-.8c.8-.6,1.2-1.4,1.2-2.6s-.4-1.6-1.1-2.1c-.7-.5-1.7-1-2.9-1.4-1.2-.4-2.5-.9-4-1.4-.9-.3-1.8-.7-2.7-1.1-.9-.4-1.7-1-2.4-1.7-.7-.7-1.3-1.5-1.7-2.5-.4-1-.6-2.2-.6-3.6s.2-2.6.7-3.8c.5-1.2,1.2-2.3,2.2-3.3,1-1,2.3-1.7,3.9-2.3,1.6-.6,3.4-.8,5.5-.8s2.5,0,3.5.2c1,.2,2,.4,2.9.7.9.3,1.9.7,2.8,1.2v7.5c-.7-.6-1.6-1.2-2.5-1.7-.9-.5-1.9-1-2.9-1.3-1-.4-2-.5-3.1-.6-1,0-1.8,0-2.6.3-.8.2-1.4.6-1.9,1.1-.4.5-.7,1.1-.7,1.9s.3,1.6.8,2.1c.5.5,1.3.9,2.3,1.3,1,.3,2,.7,3.2,1.1,1.3.4,2.5.8,3.6,1.3s2.1,1,2.9,1.8c.8.7,1.5,1.6,1.9,2.6.4,1,.7,2.3.7,3.7s-.4,3.7-1.3,5.3c-.9,1.6-2.2,2.8-3.9,3.7-1.7.9-3.8,1.4-6.2,1.4Z"/>
  <path class="st1" d="M101,53.6l17.6-41h5.1l-17.7,41h-5.1Z"/>
  <text class="st8" transform="translate(29.9 47.6)"><tspan x="0" y="0">CTI</tspan></text>
  <g>
    <path class="st7" d="M287.1,48.7l6.4-17h1.6l-6.6,17h-1.6.2Z"/>
    <path class="st7" d="M296.9,39.6v-3.1h1.8v1.8h0c.6-1.2,1.8-2.1,3.5-2.1s2.7,1,3.1,2.3h0c.4-.6.8-1.2,1.2-1.6.6-.6,1.4-.8,2.5-.8s3.7,1,3.7,4.9v6.6h-1.9v-6.4c0-2.1-.8-3.5-2.5-3.5s-2.1.8-2.3,1.9v8h-1.9v-6.8c0-1.8-.8-3.1-2.3-3.1s-2.1,1-2.5,2.1v7.8h-1.9v-8.2h-.2v.2h-.3Z"/>
    <path class="st7" d="M315.6,47.8v-.6c1.6,0,1.8-.2,1.8-1.9v-7.8c0-1.2-.6-1.8-1.8-1.9v-.6h5.3v.6c-1.6,0-1.8.2-1.8,1.9v7.8c0,1.2.6,1.8,1.8,1.9v.6h-5.3Z"/>
    <path class="st7" d="M323.2,45.6c.6.4,1.8.8,2.7.8,1.6,0,2.1-.8,2.1-1.8s-.6-1.6-2.1-2.1c-1.9-.8-2.9-1.8-2.9-3.1s1.6-3.3,3.9-3.3,2.1.4,2.7.8l-.6,1.6c-.4-.2-1.2-.6-2.3-.6s-1.9.8-1.9,1.6.6,1.4,2.1,1.9c1.9.8,2.9,1.8,2.9,3.5s-1.6,3.3-4.3,3.3-2.3-.4-3.1-.8l.6-1.6h.2v-.2h0Z"/>
    <path class="st7" d="M335.1,33.1v3.3h2.9v1.6h-2.9v6c0,1.4.4,2.1,1.6,2.1h1.2v1.6c-.4,0-1,.2-1.8.2s-1.8-.4-2.1-.8c-.6-.6-.8-1.6-.8-2.9v-6.2h-1.8v-1.6h1.8v-2.7l1.9-.6h0Z"/>
    <path class="st7" d="M338.6,48.7l6.4-17h1.6l-6.6,17h-1.6.2Z"/>
  </g>
  <g class="st5">
    <g class="st5">
      <g class="st5">
        <g class="st5">
          <text class="st6" transform="translate(216.5 47.6)"><tspan x="0" y="0">inn</tspan></text>
        </g>
      </g>
    </g>
  </g>
  <polygon class="st0" points="125.4 47.6 125.4 16 133.2 16 144.1 31.1 139.9 31.3 151.1 16 158.7 16 158.7 47.6 151.1 47.6 151.1 21.8 152.6 24.3 141.8 38.6 131.1 24 132.8 22.9 132.8 47.6 125.4 47.6"/>
  <polygon class="st2" points="199.4 47.6 199.4 21.9 190.5 21.9 190.5 16 216.1 16 216.1 21.9 207.1 21.9 207.1 47.6 199.4 47.6"/>
  <path class="st3" d="M3.4,19.4l12.7-12.6,12.8,12.6s-.3.4-.4.5c-.7.8-1.6,1.6-2.3,2.5l-8.1-7.6v13.4h9.4v4.1h-9.3v2.9c0,0,.2.7.3.7h9.1v4.1h-9.4v2.7s.2.6.3.6h9v3.7h-9l-.3.3v9.3h-4.1v-9.6H4.9v-3.9h9.1v-3.3H4.9v-4.1h9.1v-3.7H4.9v-4.1h9.1v-13.4l-7.6,7.6c-.2,0-1.1-1-1.3-1.1l-1.6-1.7h0c0-.1-.1.1-.1.1Z"/>
</svg>